<mxfile host="Electron" agent="Mozilla/5.0 (Macintosh; Intel Mac OS X 10_15_7) AppleWebKit/537.36 (KHTML, like Gecko) draw.io/24.7.8 Chrome/128.0.6613.36 Electron/32.0.1 Safari/537.36" version="24.7.8">
  <diagram name="Page-1" id="wkHyJefTCldCae9N7Q6a">
    <mxGraphModel dx="1242" dy="907" grid="1" gridSize="10" guides="1" tooltips="1" connect="1" arrows="1" fold="1" page="1" pageScale="1" pageWidth="827" pageHeight="1169" math="0" shadow="0">
      <root>
        <mxCell id="0" />
        <mxCell id="1" parent="0" />
        <mxCell id="m9WCMwNKlJ_C5Z1_mez7-63" value="" style="group" vertex="1" connectable="0" parent="1">
          <mxGeometry x="132" y="95" width="44" height="165" as="geometry" />
        </mxCell>
        <mxCell id="m9WCMwNKlJ_C5Z1_mez7-56" value="" style="rounded=0;whiteSpace=wrap;html=1;strokeColor=none;fillStyle=solid;fillColor=#7EA6E0;container=0;" vertex="1" parent="m9WCMwNKlJ_C5Z1_mez7-63">
          <mxGeometry x="2" y="120" width="40" height="45" as="geometry" />
        </mxCell>
        <mxCell id="m9WCMwNKlJ_C5Z1_mez7-57" value="" style="rounded=0;whiteSpace=wrap;html=1;strokeColor=none;fillStyle=solid;fillColor=#97D077;container=0;" vertex="1" parent="m9WCMwNKlJ_C5Z1_mez7-63">
          <mxGeometry x="2" y="80" width="40" height="45" as="geometry" />
        </mxCell>
        <mxCell id="m9WCMwNKlJ_C5Z1_mez7-58" value="" style="rounded=0;whiteSpace=wrap;html=1;strokeColor=none;fillStyle=solid;fillColor=#FFD966;container=0;" vertex="1" parent="m9WCMwNKlJ_C5Z1_mez7-63">
          <mxGeometry x="2" y="40" width="40" height="45" as="geometry" />
        </mxCell>
        <mxCell id="m9WCMwNKlJ_C5Z1_mez7-59" value="" style="rounded=0;whiteSpace=wrap;html=1;strokeColor=none;fillStyle=solid;fillColor=#EA6B66;container=0;" vertex="1" parent="m9WCMwNKlJ_C5Z1_mez7-63">
          <mxGeometry x="2" y="5" width="40" height="40" as="geometry" />
        </mxCell>
        <mxCell id="m9WCMwNKlJ_C5Z1_mez7-60" value="" style="endArrow=none;html=1;rounded=0;strokeWidth=4;" edge="1" parent="m9WCMwNKlJ_C5Z1_mez7-63">
          <mxGeometry width="50" height="50" relative="1" as="geometry">
            <mxPoint x="42" y="165" as="sourcePoint" />
            <mxPoint x="42" as="targetPoint" />
          </mxGeometry>
        </mxCell>
        <mxCell id="m9WCMwNKlJ_C5Z1_mez7-61" value="" style="endArrow=none;html=1;rounded=0;strokeWidth=4;" edge="1" parent="m9WCMwNKlJ_C5Z1_mez7-63">
          <mxGeometry width="50" height="50" relative="1" as="geometry">
            <mxPoint x="2" y="165" as="sourcePoint" />
            <mxPoint x="2" as="targetPoint" />
          </mxGeometry>
        </mxCell>
        <mxCell id="m9WCMwNKlJ_C5Z1_mez7-62" value="" style="endArrow=none;html=1;rounded=0;strokeWidth=4;" edge="1" parent="m9WCMwNKlJ_C5Z1_mez7-63">
          <mxGeometry width="50" height="50" relative="1" as="geometry">
            <mxPoint x="44" y="165" as="sourcePoint" />
            <mxPoint y="165" as="targetPoint" />
          </mxGeometry>
        </mxCell>
        <mxCell id="m9WCMwNKlJ_C5Z1_mez7-67" value="" style="group" vertex="1" connectable="0" parent="1">
          <mxGeometry x="192" y="95" width="44" height="165" as="geometry" />
        </mxCell>
        <mxCell id="m9WCMwNKlJ_C5Z1_mez7-64" value="" style="endArrow=none;html=1;rounded=0;strokeWidth=4;" edge="1" parent="m9WCMwNKlJ_C5Z1_mez7-67">
          <mxGeometry width="50" height="50" relative="1" as="geometry">
            <mxPoint x="2" y="165" as="sourcePoint" />
            <mxPoint x="2" as="targetPoint" />
          </mxGeometry>
        </mxCell>
        <mxCell id="m9WCMwNKlJ_C5Z1_mez7-65" value="" style="endArrow=none;html=1;rounded=0;strokeWidth=4;" edge="1" parent="m9WCMwNKlJ_C5Z1_mez7-67">
          <mxGeometry width="50" height="50" relative="1" as="geometry">
            <mxPoint x="42" y="165" as="sourcePoint" />
            <mxPoint x="42" as="targetPoint" />
          </mxGeometry>
        </mxCell>
        <mxCell id="m9WCMwNKlJ_C5Z1_mez7-66" value="" style="endArrow=none;html=1;rounded=0;strokeWidth=4;" edge="1" parent="m9WCMwNKlJ_C5Z1_mez7-67">
          <mxGeometry width="50" height="50" relative="1" as="geometry">
            <mxPoint x="44" y="165" as="sourcePoint" />
            <mxPoint y="165" as="targetPoint" />
          </mxGeometry>
        </mxCell>
        <mxCell id="m9WCMwNKlJ_C5Z1_mez7-68" value="" style="group" vertex="1" connectable="0" parent="1">
          <mxGeometry x="292" y="95" width="44" height="165" as="geometry" />
        </mxCell>
        <mxCell id="m9WCMwNKlJ_C5Z1_mez7-69" value="" style="rounded=0;whiteSpace=wrap;html=1;strokeColor=none;fillStyle=solid;fillColor=#7EA6E0;container=0;" vertex="1" parent="m9WCMwNKlJ_C5Z1_mez7-68">
          <mxGeometry x="2" y="120" width="40" height="45" as="geometry" />
        </mxCell>
        <mxCell id="m9WCMwNKlJ_C5Z1_mez7-70" value="" style="rounded=0;whiteSpace=wrap;html=1;strokeColor=none;fillStyle=solid;fillColor=#97D077;container=0;" vertex="1" parent="m9WCMwNKlJ_C5Z1_mez7-68">
          <mxGeometry x="2" y="80" width="40" height="45" as="geometry" />
        </mxCell>
        <mxCell id="m9WCMwNKlJ_C5Z1_mez7-71" value="" style="rounded=0;whiteSpace=wrap;html=1;strokeColor=none;fillStyle=solid;fillColor=#FFD966;container=0;" vertex="1" parent="m9WCMwNKlJ_C5Z1_mez7-68">
          <mxGeometry x="2" y="40" width="40" height="45" as="geometry" />
        </mxCell>
        <mxCell id="m9WCMwNKlJ_C5Z1_mez7-72" value="" style="rounded=0;whiteSpace=wrap;html=1;strokeColor=none;fillStyle=solid;fillColor=#EA6B66;container=0;" vertex="1" parent="m9WCMwNKlJ_C5Z1_mez7-68">
          <mxGeometry x="2" y="5" width="40" height="40" as="geometry" />
        </mxCell>
        <mxCell id="m9WCMwNKlJ_C5Z1_mez7-73" value="" style="endArrow=none;html=1;rounded=0;strokeWidth=4;" edge="1" parent="m9WCMwNKlJ_C5Z1_mez7-68">
          <mxGeometry width="50" height="50" relative="1" as="geometry">
            <mxPoint x="42" y="165" as="sourcePoint" />
            <mxPoint x="42" as="targetPoint" />
          </mxGeometry>
        </mxCell>
        <mxCell id="m9WCMwNKlJ_C5Z1_mez7-74" value="" style="endArrow=none;html=1;rounded=0;strokeWidth=4;" edge="1" parent="m9WCMwNKlJ_C5Z1_mez7-68">
          <mxGeometry width="50" height="50" relative="1" as="geometry">
            <mxPoint x="2" y="165" as="sourcePoint" />
            <mxPoint x="2" as="targetPoint" />
          </mxGeometry>
        </mxCell>
        <mxCell id="m9WCMwNKlJ_C5Z1_mez7-75" value="" style="endArrow=none;html=1;rounded=0;strokeWidth=4;" edge="1" parent="m9WCMwNKlJ_C5Z1_mez7-68">
          <mxGeometry width="50" height="50" relative="1" as="geometry">
            <mxPoint x="44" y="165" as="sourcePoint" />
            <mxPoint y="165" as="targetPoint" />
          </mxGeometry>
        </mxCell>
        <mxCell id="m9WCMwNKlJ_C5Z1_mez7-76" value="" style="group" vertex="1" connectable="0" parent="1">
          <mxGeometry x="352" y="95" width="44" height="165" as="geometry" />
        </mxCell>
        <mxCell id="m9WCMwNKlJ_C5Z1_mez7-83" value="" style="rounded=0;whiteSpace=wrap;html=1;strokeColor=none;fillStyle=solid;fillColor=#FFD966;container=0;" vertex="1" parent="m9WCMwNKlJ_C5Z1_mez7-76">
          <mxGeometry x="2" y="120" width="40" height="45" as="geometry" />
        </mxCell>
        <mxCell id="m9WCMwNKlJ_C5Z1_mez7-84" value="" style="rounded=0;whiteSpace=wrap;html=1;strokeColor=none;fillStyle=solid;fillColor=#B5739D;container=0;" vertex="1" parent="m9WCMwNKlJ_C5Z1_mez7-76">
          <mxGeometry x="2" y="80" width="40" height="45" as="geometry" />
        </mxCell>
        <mxCell id="m9WCMwNKlJ_C5Z1_mez7-93" value="" style="rounded=0;whiteSpace=wrap;html=1;strokeColor=none;fillStyle=solid;fillColor=#EA6B66;container=0;" vertex="1" parent="m9WCMwNKlJ_C5Z1_mez7-76">
          <mxGeometry x="2" y="45" width="40" height="40" as="geometry" />
        </mxCell>
        <mxCell id="m9WCMwNKlJ_C5Z1_mez7-77" value="" style="endArrow=none;html=1;rounded=0;strokeWidth=4;" edge="1" parent="m9WCMwNKlJ_C5Z1_mez7-76">
          <mxGeometry width="50" height="50" relative="1" as="geometry">
            <mxPoint x="2" y="165" as="sourcePoint" />
            <mxPoint x="2" as="targetPoint" />
          </mxGeometry>
        </mxCell>
        <mxCell id="m9WCMwNKlJ_C5Z1_mez7-78" value="" style="endArrow=none;html=1;rounded=0;strokeWidth=4;" edge="1" parent="m9WCMwNKlJ_C5Z1_mez7-76">
          <mxGeometry width="50" height="50" relative="1" as="geometry">
            <mxPoint x="42" y="165" as="sourcePoint" />
            <mxPoint x="42" as="targetPoint" />
          </mxGeometry>
        </mxCell>
        <mxCell id="m9WCMwNKlJ_C5Z1_mez7-79" value="" style="endArrow=none;html=1;rounded=0;strokeWidth=4;" edge="1" parent="m9WCMwNKlJ_C5Z1_mez7-76">
          <mxGeometry width="50" height="50" relative="1" as="geometry">
            <mxPoint x="44" y="165" as="sourcePoint" />
            <mxPoint y="165" as="targetPoint" />
          </mxGeometry>
        </mxCell>
        <mxCell id="m9WCMwNKlJ_C5Z1_mez7-81" value="" style="endArrow=classic;html=1;rounded=0;curved=1;strokeWidth=4;" edge="1" parent="1">
          <mxGeometry width="50" height="50" relative="1" as="geometry">
            <mxPoint x="152" y="90" as="sourcePoint" />
            <mxPoint x="212" y="90" as="targetPoint" />
            <Array as="points">
              <mxPoint x="152" y="60" />
              <mxPoint x="182" y="40" />
              <mxPoint x="212" y="60" />
            </Array>
          </mxGeometry>
        </mxCell>
        <mxCell id="m9WCMwNKlJ_C5Z1_mez7-82" value="" style="endArrow=classic;html=1;rounded=0;curved=1;strokeWidth=4;" edge="1" parent="1">
          <mxGeometry width="50" height="50" relative="1" as="geometry">
            <mxPoint x="312" y="90" as="sourcePoint" />
            <mxPoint x="372" y="90" as="targetPoint" />
            <Array as="points">
              <mxPoint x="312" y="60" />
              <mxPoint x="342" y="40" />
              <mxPoint x="372" y="60" />
            </Array>
          </mxGeometry>
        </mxCell>
        <mxCell id="m9WCMwNKlJ_C5Z1_mez7-94" value="" style="group" vertex="1" connectable="0" parent="1">
          <mxGeometry x="452" y="95" width="44" height="165" as="geometry" />
        </mxCell>
        <mxCell id="m9WCMwNKlJ_C5Z1_mez7-95" value="" style="rounded=0;whiteSpace=wrap;html=1;strokeColor=none;fillStyle=solid;fillColor=#7EA6E0;container=0;" vertex="1" parent="m9WCMwNKlJ_C5Z1_mez7-94">
          <mxGeometry x="2" y="120" width="40" height="45" as="geometry" />
        </mxCell>
        <mxCell id="m9WCMwNKlJ_C5Z1_mez7-96" value="" style="rounded=0;whiteSpace=wrap;html=1;strokeColor=none;fillStyle=solid;fillColor=#97D077;container=0;" vertex="1" parent="m9WCMwNKlJ_C5Z1_mez7-94">
          <mxGeometry x="2" y="80" width="40" height="45" as="geometry" />
        </mxCell>
        <mxCell id="m9WCMwNKlJ_C5Z1_mez7-97" value="" style="rounded=0;whiteSpace=wrap;html=1;strokeColor=none;fillStyle=solid;fillColor=#FFD966;container=0;" vertex="1" parent="m9WCMwNKlJ_C5Z1_mez7-94">
          <mxGeometry x="2" y="40" width="40" height="45" as="geometry" />
        </mxCell>
        <mxCell id="m9WCMwNKlJ_C5Z1_mez7-98" value="" style="rounded=0;whiteSpace=wrap;html=1;strokeColor=none;fillStyle=solid;fillColor=#EA6B66;container=0;" vertex="1" parent="m9WCMwNKlJ_C5Z1_mez7-94">
          <mxGeometry x="2" y="5" width="40" height="40" as="geometry" />
        </mxCell>
        <mxCell id="m9WCMwNKlJ_C5Z1_mez7-99" value="" style="endArrow=none;html=1;rounded=0;strokeWidth=4;" edge="1" parent="m9WCMwNKlJ_C5Z1_mez7-94">
          <mxGeometry width="50" height="50" relative="1" as="geometry">
            <mxPoint x="42" y="165" as="sourcePoint" />
            <mxPoint x="42" as="targetPoint" />
          </mxGeometry>
        </mxCell>
        <mxCell id="m9WCMwNKlJ_C5Z1_mez7-100" value="" style="endArrow=none;html=1;rounded=0;strokeWidth=4;" edge="1" parent="m9WCMwNKlJ_C5Z1_mez7-94">
          <mxGeometry width="50" height="50" relative="1" as="geometry">
            <mxPoint x="2" y="165" as="sourcePoint" />
            <mxPoint x="2" as="targetPoint" />
          </mxGeometry>
        </mxCell>
        <mxCell id="m9WCMwNKlJ_C5Z1_mez7-101" value="" style="endArrow=none;html=1;rounded=0;strokeWidth=4;" edge="1" parent="m9WCMwNKlJ_C5Z1_mez7-94">
          <mxGeometry width="50" height="50" relative="1" as="geometry">
            <mxPoint x="44" y="165" as="sourcePoint" />
            <mxPoint y="165" as="targetPoint" />
          </mxGeometry>
        </mxCell>
        <mxCell id="m9WCMwNKlJ_C5Z1_mez7-102" value="" style="group" vertex="1" connectable="0" parent="1">
          <mxGeometry x="512" y="95" width="44" height="165" as="geometry" />
        </mxCell>
        <mxCell id="m9WCMwNKlJ_C5Z1_mez7-103" value="" style="rounded=0;whiteSpace=wrap;html=1;strokeColor=none;fillStyle=solid;fillColor=#FFD966;container=0;" vertex="1" parent="m9WCMwNKlJ_C5Z1_mez7-102">
          <mxGeometry x="2" y="120" width="40" height="45" as="geometry" />
        </mxCell>
        <mxCell id="m9WCMwNKlJ_C5Z1_mez7-104" value="" style="rounded=0;whiteSpace=wrap;html=1;strokeColor=none;fillStyle=solid;fillColor=#B5739D;container=0;" vertex="1" parent="m9WCMwNKlJ_C5Z1_mez7-102">
          <mxGeometry x="2" y="80" width="40" height="45" as="geometry" />
        </mxCell>
        <mxCell id="m9WCMwNKlJ_C5Z1_mez7-105" value="" style="rounded=0;whiteSpace=wrap;html=1;strokeColor=none;fillStyle=solid;fillColor=#97D077;container=0;" vertex="1" parent="m9WCMwNKlJ_C5Z1_mez7-102">
          <mxGeometry x="2" y="45" width="40" height="40" as="geometry" />
        </mxCell>
        <mxCell id="m9WCMwNKlJ_C5Z1_mez7-106" value="" style="endArrow=none;html=1;rounded=0;strokeWidth=4;" edge="1" parent="m9WCMwNKlJ_C5Z1_mez7-102">
          <mxGeometry width="50" height="50" relative="1" as="geometry">
            <mxPoint x="2" y="165" as="sourcePoint" />
            <mxPoint x="2" as="targetPoint" />
          </mxGeometry>
        </mxCell>
        <mxCell id="m9WCMwNKlJ_C5Z1_mez7-107" value="" style="endArrow=none;html=1;rounded=0;strokeWidth=4;" edge="1" parent="m9WCMwNKlJ_C5Z1_mez7-102">
          <mxGeometry width="50" height="50" relative="1" as="geometry">
            <mxPoint x="42" y="165" as="sourcePoint" />
            <mxPoint x="42" as="targetPoint" />
          </mxGeometry>
        </mxCell>
        <mxCell id="m9WCMwNKlJ_C5Z1_mez7-108" value="" style="endArrow=none;html=1;rounded=0;strokeWidth=4;" edge="1" parent="m9WCMwNKlJ_C5Z1_mez7-102">
          <mxGeometry width="50" height="50" relative="1" as="geometry">
            <mxPoint x="44" y="165" as="sourcePoint" />
            <mxPoint y="165" as="targetPoint" />
          </mxGeometry>
        </mxCell>
        <mxCell id="m9WCMwNKlJ_C5Z1_mez7-109" value="" style="endArrow=classic;html=1;rounded=0;curved=1;strokeWidth=4;" edge="1" parent="1">
          <mxGeometry width="50" height="50" relative="1" as="geometry">
            <mxPoint x="472" y="90" as="sourcePoint" />
            <mxPoint x="532" y="90" as="targetPoint" />
            <Array as="points">
              <mxPoint x="472" y="60" />
              <mxPoint x="502" y="40" />
              <mxPoint x="532" y="60" />
            </Array>
          </mxGeometry>
        </mxCell>
        <mxCell id="m9WCMwNKlJ_C5Z1_mez7-110" value="" style="verticalLabelPosition=bottom;verticalAlign=top;html=1;shape=mxgraph.basic.tick;strokeColor=none;fillColor=#00CC00;" vertex="1" parent="1">
          <mxGeometry x="162" y="270" width="40" height="40" as="geometry" />
        </mxCell>
        <mxCell id="m9WCMwNKlJ_C5Z1_mez7-112" value="" style="verticalLabelPosition=bottom;verticalAlign=top;html=1;shape=mxgraph.basic.tick;strokeColor=none;fillColor=#00CC00;" vertex="1" parent="1">
          <mxGeometry x="322" y="270" width="40" height="40" as="geometry" />
        </mxCell>
        <mxCell id="m9WCMwNKlJ_C5Z1_mez7-113" value="" style="verticalLabelPosition=bottom;verticalAlign=top;html=1;shape=mxgraph.basic.x;strokeColor=none;fillColor=#FF3333;" vertex="1" parent="1">
          <mxGeometry x="482" y="270" width="40" height="40" as="geometry" />
        </mxCell>
        <mxCell id="m9WCMwNKlJ_C5Z1_mez7-214" value="" style="group" vertex="1" connectable="0" parent="1">
          <mxGeometry x="592" y="95" width="44" height="165" as="geometry" />
        </mxCell>
        <mxCell id="m9WCMwNKlJ_C5Z1_mez7-215" value="" style="rounded=0;whiteSpace=wrap;html=1;strokeColor=none;fillStyle=solid;fillColor=#7EA6E0;container=0;" vertex="1" parent="m9WCMwNKlJ_C5Z1_mez7-214">
          <mxGeometry x="2" y="120" width="40" height="45" as="geometry" />
        </mxCell>
        <mxCell id="m9WCMwNKlJ_C5Z1_mez7-216" value="" style="rounded=0;whiteSpace=wrap;html=1;strokeColor=none;fillStyle=solid;fillColor=#97D077;container=0;" vertex="1" parent="m9WCMwNKlJ_C5Z1_mez7-214">
          <mxGeometry x="2" y="80" width="40" height="45" as="geometry" />
        </mxCell>
        <mxCell id="m9WCMwNKlJ_C5Z1_mez7-217" value="" style="rounded=0;whiteSpace=wrap;html=1;strokeColor=none;fillStyle=solid;fillColor=#EA6B66;container=0;" vertex="1" parent="m9WCMwNKlJ_C5Z1_mez7-214">
          <mxGeometry x="2" y="40" width="40" height="45" as="geometry" />
        </mxCell>
        <mxCell id="m9WCMwNKlJ_C5Z1_mez7-218" value="" style="rounded=0;whiteSpace=wrap;html=1;strokeColor=none;fillStyle=solid;fillColor=#EA6B66;container=0;" vertex="1" parent="m9WCMwNKlJ_C5Z1_mez7-214">
          <mxGeometry x="2" y="5" width="40" height="40" as="geometry" />
        </mxCell>
        <mxCell id="m9WCMwNKlJ_C5Z1_mez7-219" value="" style="endArrow=none;html=1;rounded=0;strokeWidth=4;" edge="1" parent="m9WCMwNKlJ_C5Z1_mez7-214">
          <mxGeometry width="50" height="50" relative="1" as="geometry">
            <mxPoint x="42" y="165" as="sourcePoint" />
            <mxPoint x="42" as="targetPoint" />
          </mxGeometry>
        </mxCell>
        <mxCell id="m9WCMwNKlJ_C5Z1_mez7-220" value="" style="endArrow=none;html=1;rounded=0;strokeWidth=4;" edge="1" parent="m9WCMwNKlJ_C5Z1_mez7-214">
          <mxGeometry width="50" height="50" relative="1" as="geometry">
            <mxPoint x="2" y="165" as="sourcePoint" />
            <mxPoint x="2" as="targetPoint" />
          </mxGeometry>
        </mxCell>
        <mxCell id="m9WCMwNKlJ_C5Z1_mez7-221" value="" style="endArrow=none;html=1;rounded=0;strokeWidth=4;" edge="1" parent="m9WCMwNKlJ_C5Z1_mez7-214">
          <mxGeometry width="50" height="50" relative="1" as="geometry">
            <mxPoint x="44" y="165" as="sourcePoint" />
            <mxPoint y="165" as="targetPoint" />
          </mxGeometry>
        </mxCell>
        <mxCell id="m9WCMwNKlJ_C5Z1_mez7-222" value="" style="group" vertex="1" connectable="0" parent="1">
          <mxGeometry x="652" y="95" width="44" height="165" as="geometry" />
        </mxCell>
        <mxCell id="m9WCMwNKlJ_C5Z1_mez7-262" value="" style="rounded=0;whiteSpace=wrap;html=1;strokeColor=none;fillStyle=solid;fillColor=#EA6B66;container=0;" vertex="1" parent="m9WCMwNKlJ_C5Z1_mez7-222">
          <mxGeometry x="2" y="45" width="40" height="40" as="geometry" />
        </mxCell>
        <mxCell id="m9WCMwNKlJ_C5Z1_mez7-263" value="" style="rounded=0;whiteSpace=wrap;html=1;strokeColor=none;fillStyle=solid;fillColor=#B5739D;container=0;" vertex="1" parent="m9WCMwNKlJ_C5Z1_mez7-222">
          <mxGeometry x="2" y="80" width="40" height="45" as="geometry" />
        </mxCell>
        <mxCell id="m9WCMwNKlJ_C5Z1_mez7-264" value="" style="rounded=0;whiteSpace=wrap;html=1;strokeColor=none;fillStyle=solid;fillColor=#FFD966;container=0;" vertex="1" parent="m9WCMwNKlJ_C5Z1_mez7-222">
          <mxGeometry x="2" y="120" width="40" height="45" as="geometry" />
        </mxCell>
        <mxCell id="m9WCMwNKlJ_C5Z1_mez7-223" value="" style="endArrow=none;html=1;rounded=0;strokeWidth=4;" edge="1" parent="m9WCMwNKlJ_C5Z1_mez7-222">
          <mxGeometry width="50" height="50" relative="1" as="geometry">
            <mxPoint x="2" y="165" as="sourcePoint" />
            <mxPoint x="2" as="targetPoint" />
          </mxGeometry>
        </mxCell>
        <mxCell id="m9WCMwNKlJ_C5Z1_mez7-224" value="" style="endArrow=none;html=1;rounded=0;strokeWidth=4;" edge="1" parent="m9WCMwNKlJ_C5Z1_mez7-222">
          <mxGeometry width="50" height="50" relative="1" as="geometry">
            <mxPoint x="42" y="165" as="sourcePoint" />
            <mxPoint x="42" as="targetPoint" />
          </mxGeometry>
        </mxCell>
        <mxCell id="m9WCMwNKlJ_C5Z1_mez7-225" value="" style="endArrow=none;html=1;rounded=0;strokeWidth=4;" edge="1" parent="m9WCMwNKlJ_C5Z1_mez7-222">
          <mxGeometry width="50" height="50" relative="1" as="geometry">
            <mxPoint x="44" y="165" as="sourcePoint" />
            <mxPoint y="165" as="targetPoint" />
          </mxGeometry>
        </mxCell>
        <mxCell id="m9WCMwNKlJ_C5Z1_mez7-241" value="" style="endArrow=classic;html=1;rounded=0;curved=1;strokeWidth=4;" edge="1" parent="1">
          <mxGeometry width="50" height="50" relative="1" as="geometry">
            <mxPoint x="612" y="90" as="sourcePoint" />
            <mxPoint x="672" y="90" as="targetPoint" />
            <Array as="points">
              <mxPoint x="612" y="60" />
              <mxPoint x="642" y="40" />
              <mxPoint x="672" y="60" />
            </Array>
          </mxGeometry>
        </mxCell>
        <mxCell id="m9WCMwNKlJ_C5Z1_mez7-265" value="" style="verticalLabelPosition=bottom;verticalAlign=top;html=1;shape=mxgraph.basic.x;strokeColor=none;fillColor=#FF3333;" vertex="1" parent="1">
          <mxGeometry x="622" y="270" width="40" height="40" as="geometry" />
        </mxCell>
      </root>
    </mxGraphModel>
  </diagram>
</mxfile>
